<svg xmlns="http://www.w3.org/2000/svg" version="1.0" viewBox="288 253 516 418"><path d="M536.5 263.6c-9.6 1.5-24.6 8-37.3 16-2.9 1.9-5.4 3.4-5.7 3.4-.2 0-6.4 3.7-13.7 8.2-12.5 7.7-33.2 20-54.8 32.6-5.2 3-17.8 10.5-28 16.5-10.2 6.1-23 13.7-28.5 16.9-14.8 8.8-24 16.2-28.9 23.2-5.3 7.7-7.5 12.7-12.6 29.6-2.3 7.4-9.1 28.2-15 46.1-5.9 18-11.4 35.1-12 38.1-1.8 8-.8 23.1 1.8 29.1 3.1 7 11.2 14.3 23.7 21.6 6.1 3.5 13.7 8 17 10.1s19.5 11.7 36 21.5c44.4 26.3 68.7 40.9 100.5 60 36.8 22 43.5 24.5 67 24.5 21 0 33.3-3.6 53.2-15.5 6.2-3.7 12.8-7.7 14.8-8.8 1.9-1 9.6-5.6 17-10.2 7.4-4.5 27-16.2 43.5-26 70.1-41.6 100.7-60 105.1-63.4 5.7-4.3 11.9-13.1 13.3-18.8 1.6-6 1.3-18.7-.5-26.3-2.2-9.4-32.1-98.4-34.9-104.1-2.9-5.6-12.1-15.9-18-19.9-2.3-1.6-11.4-7-20.1-12.1-8.8-5-25.6-14.9-37.4-21.9s-27.1-16-34-20-17.2-10.1-23-13.5c-49.5-29.2-56.9-33.3-64.5-35.4-4.5-1.3-19.5-2.2-24-1.5m19 19.3c6.3 2.8 67.3 38.3 145.5 84.7 29.1 17.3 31 18.9 31 25.7 0 5.4-3.4 8.5-20.2 18.5-8.4 4.9-21.1 12.5-28.3 16.7-7.1 4.3-18.4 10.9-25 14.8-6.6 3.8-14.7 8.7-18 10.7-21.2 13.1-78.8 46.9-82.5 48.5-5.6 2.3-18.9 2.4-24.1.2-2-.8-17.1-9.5-33.5-19.4s-43.4-26-59.9-35.8c-16.5-9.9-37.4-22.4-46.5-27.9-9.1-5.4-20.1-12.1-24.6-14.7-6.4-3.8-8.4-5.6-9.8-8.7-1.6-3.5-1.6-4.2-.3-7.5.9-2 3.4-4.9 5.7-6.6 4-2.9 64.4-39.3 115-69.2 13.5-8 30.1-17.9 37-22 6.8-4.1 13.3-7.8 14.5-8.3 6.7-2.9 17-2.7 24 .3m188.4 147.4c8 24.9 18.4 62.8 18.8 68.8.9 10.5-1.1 13-17.2 22.7-5.5 3.3-17.4 10.5-26.5 15.9-30.6 18.4-106.1 63.7-124.4 74.6-18.6 11-29.5 16.7-32.1 16.7-1.3 0-1.5-6.5-1.5-51.8v-51.8l5.8-1.8c3.1-1 9.3-4 13.7-6.6 16.2-9.6 41.7-25 69-41.6 15.4-9.4 41.3-25 57.6-34.8 16.4-9.7 30.2-18.3 30.9-19.1s1.6-1.2 2.1-1c.4.3 2.2 4.7 3.8 9.8"/><path d="M542 325.2c-3 1.7-10.5 6-16.6 9.5l-11.1 6.3-.7 11.8c-1.6 29.2-2.9 41.3-4.4 40.7-.8-.3-10.1-6.4-20.8-13.5-10.6-7.2-19.7-13-20-13-.8 0-24.1 13.3-26.7 15.2-1.7 1.3-1.2 1.8 6 6.7 23.7 16.3 100.7 67.4 101.6 67.5 1.2.1 22.3-12 26.6-15.3l2.5-1.9-6.5-4.1c-3.5-2.3-11.7-7.6-18.2-11.9l-11.7-7.7.6-6c.4-3.3 1.1-6.3 1.5-6.6.5-.3 4.2-.2 8.2.2 17.4 1.9 49.3 4.9 61.5 5.9l13.3 1.1 13.4-9.2c7.4-5.1 13.5-9.6 13.5-10 0-1.9-.7-2-47.5-6.4-14.8-1.4-30.8-3-35.5-3.5s-12.2-1.2-16.8-1.6l-8.3-.6.6-10.2c.4-5.5 1.1-15.3 1.6-21.6 1.1-14 1.2-25 .2-24.9-.5 0-3.3 1.4-6.3 3.1"/></svg>